<svg width="14" height="14" viewBox="0 0 14 14" fill="none" xmlns="http://www.w3.org/2000/svg">
<rect width="14" height="14" rx="3" fill="#006634"/>
<g clip-path="url(#clip0_627_819)">
<path d="M10.9993 4.86151C9.51922 6.36151 8.05191 7.87456 6.57185 9.3876C6.39322 9.57021 6.21459 9.75282 6.03597 9.93543C5.94665 10.0267 5.89562 10.0267 5.8063 9.93543C4.9004 8.9963 3.98174 8.05717 3.06308 7.11804C2.97377 7.02673 2.97377 6.97456 3.06308 6.88325C3.26723 6.67456 3.47137 6.46586 3.67552 6.25717C3.76483 6.16586 3.81587 6.16586 3.90518 6.25717C4.5559 6.92238 5.20662 7.5876 5.85734 8.25282C5.88286 8.27891 5.89561 8.30499 5.90837 8.33108C5.93389 8.30499 5.95941 8.27891 5.98493 8.26586C7.35016 6.87021 8.70263 5.4876 10.0679 4.09195C10.1827 3.97456 10.221 3.97456 10.3358 4.09195C10.5272 4.2876 10.7186 4.48325 10.91 4.67891C10.9355 4.70499 10.9738 4.74412 10.9993 4.78325C10.9993 4.80934 10.9993 4.83543 10.9993 4.86151Z" fill="white"/>
</g>
<defs>
<clipPath id="clip0_627_819">
<rect width="8" height="6" fill="white" transform="translate(3 4)"/>
</clipPath>
</defs>
</svg>
