<?xml version="1.0" standalone="no"?>
<!DOCTYPE svg PUBLIC "-//W3C//DTD SVG 20010904//EN"
 "http://www.w3.org/TR/2001/REC-SVG-20010904/DTD/svg10.dtd">
<svg version="1.0" xmlns="http://www.w3.org/2000/svg"
 width="700.000000pt" height="700.000000pt" viewBox="0 0 700.000000 700.000000"
 preserveAspectRatio="xMidYMid meet">
<metadata>
Created by potrace 1.14, written by Peter Selinger 2001-2017
</metadata>
<g transform="translate(0.000000,700.000000) scale(0.100000,-0.100000)"
fill="#000000" stroke="none">
<path d="M26 6974 l-26 -27 0 -3447 0 -3447 26 -27 27 -26 3446 0 c2693 1
3449 3 3462 13 9 7 21 22 27 34 9 16 12 865 12 3461 l0 3439 -26 27 -27 26
-3447 0 -3447 0 -27 -26z m4738 -225 c67 -53 111 -212 136 -491 l10 -117 -57
-102 -58 -103 -11 106 c-20 181 -58 273 -103 248 -74 -39 -126 -230 -150 -545
-27 -357 -20 -914 14 -1110 65 -371 207 -141 241 388 4 59 9 107 11 107 2 0
26 -11 53 -25 48 -24 50 -27 50 -68 0 -165 -59 -584 -105 -742 -47 -165 -122
-292 -182 -307 -98 -26 -177 191 -213 582 -29 315 -21 955 16 1310 50 488 150
816 265 873 44 21 51 21 83 -4z m-1984 -509 c0 -127 -3 -230 -6 -230 -4 0 -78
38 -165 85 -87 47 -160 85 -163 85 -3 0 -6 -139 -6 -309 l0 -310 98 -57 c53
-32 110 -71 125 -88 74 -78 123 -245 159 -536 17 -140 17 -645 0 -762 -16
-111 -47 -232 -71 -278 -20 -38 -55 -56 -92 -47 -13 4 -94 55 -179 115 l-155
109 -3 1341 -2 1342 230 -115 230 -115 0 -230z m1490 -1170 l0 -1380 -62 -59
-63 -60 -5 885 -5 885 -139 -1023 -140 -1023 -70 -67 c-39 -37 -74 -68 -78
-68 -5 0 -8 663 -8 1474 l0 1474 69 41 c38 22 72 41 75 41 3 0 7 -422 8 -937
l3 -937 138 1015 c76 558 140 1021 143 1029 3 14 109 88 127 89 4 1 7 -620 7
-1379z m-1020 1147 c0 -10 63 -688 140 -1506 77 -817 140 -1497 140 -1509 0
-22 -5 -20 -75 29 -41 28 -75 52 -75 54 0 1 -13 152 -30 335 -16 183 -30 339
-30 347 0 7 -62 54 -137 104 -114 76 -138 88 -140 73 -2 -11 -14 -144 -28
-298 -13 -153 -26 -280 -28 -283 -6 -5 -137 86 -137 96 0 4 56 599 125 1322
69 723 125 1317 125 1321 0 4 34 -9 75 -29 53 -27 75 -43 75 -56z m1708 -4147
l1 -705 -551 -465 c-303 -256 -608 -514 -678 -573 l-128 -108 -783 542 -782
543 7 340 c3 188 9 708 12 1156 4 448 9 880 13 960 l6 146 735 -504 c404 -277
744 -508 756 -514 18 -9 101 53 700 526 l679 537 6 -588 c3 -323 7 -905 7
-1293z"/>
<path d="M2440 4748 l0 -353 73 -47 c103 -67 124 -75 143 -56 39 39 60 232 45
408 -21 231 -60 294 -238 389 l-23 12 0 -353z"/>
<path d="M3171 5575 c-9 -76 -81 -904 -81 -929 0 -32 5 -37 88 -89 48 -30 88
-53 90 -52 3 3 -87 1042 -92 1065 -2 8 -4 11 -5 5z"/>
<path d="M2340 3262 l0 -108 123 -86 c130 -91 351 -237 430 -282 44 -26 47
-30 47 -70 l0 -42 -71 35 c-67 33 -72 34 -84 18 -17 -23 -27 -259 -23 -525 l3
-204 115 -49 c63 -27 125 -49 138 -49 19 0 22 5 22 38 0 69 39 224 74 298 109
230 305 264 498 86 101 -94 174 -235 208 -404 68 -332 0 -720 -156 -882 -60
-63 -121 -90 -204 -91 -235 -1 -401 284 -427 732 -6 112 -7 115 -32 125 -31
12 -223 68 -233 68 -14 0 -9 -682 5 -708 10 -18 781 -568 807 -575 4 -1 114
83 243 187 l235 189 7 111 c11 194 2 1213 -12 1227 -12 12 -25 9 -60 -17 -23
-16 -23 -16 -23 18 0 31 7 41 58 80 31 25 168 144 305 265 136 120 262 227
279 237 l31 19 -7 -49 c-4 -27 -11 -137 -16 -244 -9 -181 -12 -196 -31 -213
-12 -10 -23 -16 -25 -15 -1 2 -7 59 -13 127 -6 68 -12 126 -15 128 -9 10 -131
-54 -191 -100 -33 -25 -84 -70 -113 -100 l-53 -54 -6 -663 c-6 -593 -5 -662 9
-654 8 5 119 92 246 194 l231 185 1 401 c0 220 -3 644 -7 941 l-6 539 -551
-397 c-327 -237 -554 -395 -561 -390 -38 30 -1186 831 -1190 831 -3 0 -5 -49
-5 -108z"/>
<path d="M2340 2251 l0 -799 113 -80 112 -79 3 621 c1 342 -2 691 -7 778 -13
208 -22 225 -158 317 l-63 42 0 -800z"/>
<path d="M3355 2326 c-65 -28 -121 -124 -150 -257 -22 -102 -31 -359 -16 -489
31 -267 112 -465 216 -526 122 -71 235 -17 294 141 45 121 56 207 55 445 0
210 -2 231 -27 323 -49 184 -128 301 -239 352 -60 28 -89 30 -133 11z"/>
</g>
</svg>
