<svg width="47" height="105" viewBox="0 0 47 105" fill="none" xmlns="http://www.w3.org/2000/svg">
<path fill-rule="evenodd" clip-rule="evenodd" d="M4.43963 1.08413L11.8807 4.80621L11.889 12.2754L6.40992 9.35511L6.41303 19.3782L9.09748 20.9303C9.84806 21.3639 10.4777 22.1278 10.978 23.2206C11.4829 24.3197 11.9165 26.0619 12.2782 28.4615C12.6406 30.8595 12.8261 33.5409 12.8298 36.4874C12.8335 39.5098 12.6544 41.9856 12.2915 43.8992C11.9316 45.7988 11.5215 46.9935 11.0591 47.4635C10.6011 47.9339 9.94992 47.8743 9.11107 47.2913L4.43963 44.0427V1.08413ZM15.9219 78.1179C16.2071 74.2724 17.2407 71.632 18.9175 70.3018C20.4878 69.0541 22.2766 69.1655 24.1957 70.4595C25.9876 71.6669 27.2351 73.4699 28.0344 75.8359C28.7816 78.0488 29.0646 80.4934 28.9183 83.2378C28.7594 86.2222 28.1696 88.5854 27.1073 90.4307C25.9907 92.3744 24.5707 93.3886 22.7578 93.3886C20.9554 93.3886 19.3702 92.3745 18.0632 90.2143C16.6472 87.8752 15.871 84.3883 15.8303 79.8107C15.2121 79.545 14.8831 79.4049 14.8559 79.3962C14.7488 79.362 14.43 79.2799 13.8837 79.145L11.514 78.4281L11.4915 84.3667C11.4875 85.3556 11.5082 86.5167 11.553 87.8385L11.6116 89.9579L11.5465 89.956L24.7216 99.1717L32.4231 92.9772C32.4321 92.4211 32.4383 91.7887 32.441 91.0788L32.4975 76.1711C32.5062 73.9912 32.4753 72.5916 32.4062 71.9743C32.3376 71.3648 32.0028 71.3064 31.4136 71.7873L30.8448 72.2508L30.8504 71.0713C31.6978 70.4262 32.5222 69.7948 33.2753 69.126L39.471 63.6243C40.2781 62.9077 41.0379 62.3515 41.7049 61.9179C41.403 63.7839 41.2453 66.402 41.228 69.7966L40.3481 70.3886C40.3031 68.7186 40.2 67.3041 40.0358 66.1514C38.9627 66.4335 37.8498 67.0489 36.7106 67.9624C35.8813 68.6281 35.0906 69.3556 34.3329 70.137C34.253 71.9623 34.2095 73.5965 34.2052 75.0415L34.1589 90.7091L34.1585 91.5816L41.9308 85.3306L41.8712 55.0864L24.1231 67.914L4.75598 54.3451L4.7529 57.9208C6.6982 59.3075 8.3617 60.4547 9.78942 61.3975C11.7076 62.6648 13.231 63.6252 14.4189 64.3209L14.4034 65.7045L13.8001 65.323C12.6557 64.6005 11.9807 64.4339 11.815 64.8422C11.6486 65.2533 11.5551 67.4791 11.5403 71.4484L11.5218 76.4257C13.7476 77.3682 14.7871 77.8117 14.7957 77.8148C15.0494 77.9056 15.4269 78.0071 15.9219 78.1179ZM8.49381 87.8209C8.51757 86.7608 8.52527 85.4229 8.51756 83.8007L8.45306 70.0052C8.43392 65.9696 8.31975 63.5277 8.10772 62.7315C7.89322 61.9253 7.19046 61.1463 5.96458 60.3717L4.75137 59.605L4.72912 85.1877L8.49381 87.8209ZM23.6661 71.5935C22.2007 70.6688 20.9325 70.825 19.931 72.1681C18.8882 73.5607 18.3123 75.9624 18.2373 79.2774C18.1549 82.9196 18.6419 86.0355 19.6415 88.5542C20.5767 90.91 21.8461 92.0649 23.3874 92.1211C24.6425 92.1667 25.6055 91.4273 26.3224 89.9455C27.0172 88.5089 27.4224 86.4824 27.5554 83.7976C27.6962 80.9517 27.4758 78.4972 26.8666 76.3893C26.2249 74.1582 25.1814 72.5499 23.6661 71.5935ZM24.696 62.4166L0.420026 45.8123L0 87.6379L25.0114 104.978L46.7649 86.587L46.6596 45.0766L24.696 62.4166ZM44.1168 26.1835L45.8948 27.1507C45.6007 31.8805 45.1297 35.6282 44.4794 38.4136C43.8236 41.2159 42.9909 43.1143 41.9712 44.0945C40.6845 45.3312 39.6142 44.4322 38.7679 41.3449C37.9106 38.2065 37.4853 33.1875 37.505 26.2955C37.5263 18.9902 37.9886 12.9821 38.8815 8.35021C39.7639 3.77107 40.8987 1.07888 42.2672 0.250208C43.4384 -0.459332 44.3662 0.499274 45.0591 3.08251C45.4695 4.59109 45.7664 6.92896 45.9566 10.1008L44.1116 13.3849C44.0103 11.3029 43.7869 9.74676 43.4394 8.72643C43.0875 7.70116 42.6551 7.36043 42.14 7.70301C41.4191 8.18385 40.8225 9.72021 40.3577 12.3306C39.888 14.9462 39.6442 18.8384 39.6266 23.9842C39.6077 29.4164 39.8222 33.0906 40.2642 34.989C40.7049 36.8784 41.2774 37.4929 41.9808 36.8581C42.495 36.3939 42.9375 35.2902 43.3076 33.5412C43.6764 31.8005 43.9467 29.3553 44.1168 26.1835ZM26.6625 10.5754L28.9387 9.18228L28.9199 40.3971L33.583 6.33887L35.7733 4.9988L35.6662 49.4208L33.6379 51.3597L33.6928 21.937L29.0575 55.7367L26.6625 58.0248V10.5754ZM23.9358 57.5989L21.4563 55.8749L20.4631 44.6402L16.0775 41.7866L15.2056 51.5288L12.9436 49.956L16.9919 7.36321L19.3171 8.52644L23.9358 57.5989ZM19.7159 36.3726L18.1542 18.5353L16.7246 34.5242L19.7159 36.3726ZM6.41857 38.054L8.37005 39.3469C9.00028 39.7635 9.44746 39.9265 9.70455 39.8295C9.96195 39.7314 10.1891 39.274 10.3811 38.4404C10.5727 37.617 10.6669 36.5022 10.6656 35.1094C10.6638 33.0776 10.4934 31.4987 10.1579 30.3654C9.82122 29.2457 9.25303 28.4371 8.45182 27.9479L6.41517 26.7023L6.41857 38.054Z" fill="#006634"/>
</svg>
