<svg width="15" height="32" viewBox="0 0 15 32" fill="none" xmlns="http://www.w3.org/2000/svg">
<path fill-rule="evenodd" clip-rule="evenodd" d="M1.35362 0.323399L3.62237 1.45824L3.62491 3.73555L1.95435 2.84518L1.9553 5.90116L2.77377 6.37439C3.00262 6.5066 3.19459 6.73949 3.34713 7.0727C3.50108 7.40779 3.63328 7.93898 3.74357 8.67061C3.85404 9.40176 3.9106 10.2193 3.91173 11.1177C3.91286 12.0392 3.85827 12.7941 3.74761 13.3775C3.63789 13.9567 3.51284 14.3209 3.37188 14.4642C3.23223 14.6076 3.03368 14.5895 2.77792 14.4117L1.35362 13.4212V0.323399ZM4.85451 23.8106C4.94145 22.6381 5.2566 21.8331 5.76784 21.4275C6.24662 21.0471 6.79202 21.081 7.37713 21.4756C7.92347 21.8437 8.30382 22.3935 8.54754 23.1148C8.77536 23.7895 8.86165 24.5349 8.81705 25.3716C8.76859 26.2816 8.58876 27.0021 8.26487 27.5647C7.92441 28.1573 7.49146 28.4666 6.93872 28.4666C6.38918 28.4666 5.90588 28.1573 5.50737 27.4987C5.07564 26.7856 4.83898 25.7224 4.82656 24.3267C4.63808 24.2457 4.53777 24.203 4.52949 24.2004C4.49683 24.1899 4.39963 24.1649 4.23307 24.1238L3.51057 23.9052L3.50371 25.7158C3.50248 26.0173 3.50879 26.3713 3.52243 26.7744L3.54031 27.4205L3.52046 27.42L7.53748 30.2298L9.88564 28.3411C9.88837 28.1716 9.89025 27.9787 9.8911 27.7623L9.90832 23.217C9.91096 22.5524 9.90155 22.1256 9.88047 21.9374C9.85958 21.7516 9.75748 21.7338 9.57784 21.8804L9.40442 22.0218L9.40611 21.6621C9.66451 21.4654 9.91585 21.2729 10.1455 21.069L12.0345 19.3916C12.2806 19.1731 12.5122 19.0035 12.7156 18.8713C12.6236 19.4402 12.5755 20.2385 12.5702 21.2735L12.3019 21.454C12.2882 20.9448 12.2568 20.5135 12.2067 20.1621C11.8795 20.2481 11.5402 20.4357 11.1929 20.7142C10.94 20.9172 10.6989 21.139 10.4679 21.3773C10.4436 21.9338 10.4303 22.432 10.429 22.8726L10.4149 27.6496L10.4148 27.9156L12.7845 26.0097L12.7663 16.7884L7.35502 20.6995L1.45007 16.5624L1.44914 17.6526C2.04225 18.0754 2.54944 18.4252 2.98474 18.7126C3.56957 19.099 4.03405 19.3919 4.39624 19.604L4.39153 20.0258L4.20757 19.9095C3.85865 19.6892 3.65285 19.6384 3.60232 19.7629C3.5516 19.8882 3.52309 20.5669 3.51858 21.7771L3.51292 23.2946C4.19157 23.582 4.5085 23.7172 4.51113 23.7182C4.58848 23.7459 4.70357 23.7768 4.85451 23.8106ZM2.58972 26.769C2.59696 26.4458 2.59931 26.0378 2.59696 25.5433L2.57729 21.3371C2.57146 20.1066 2.53665 19.3621 2.472 19.1193C2.4066 18.8736 2.19233 18.6361 1.81857 18.3999L1.44867 18.1661L1.44188 25.9661L2.58972 26.769ZM7.21566 21.8213C6.76887 21.5394 6.38222 21.587 6.07687 21.9965C5.7589 22.4211 5.58331 23.1534 5.56045 24.1641C5.53532 25.2746 5.68381 26.2246 5.9886 26.9926C6.27372 27.7108 6.66075 28.063 7.13068 28.0801C7.51338 28.094 7.80698 27.8686 8.02557 27.4168C8.23739 26.9787 8.36095 26.3609 8.4015 25.5423C8.44441 24.6746 8.37722 23.9262 8.19147 23.2835C7.99584 22.6033 7.67769 22.1129 7.21566 21.8213ZM7.52967 19.0234L0.128064 13.9608L0 26.7132L7.62583 32L14.2584 26.3928L14.2263 13.7365L7.52967 19.0234ZM13.451 7.97606L13.9931 8.27097C13.9034 9.71305 13.7598 10.8557 13.5616 11.7049C13.3616 12.5594 13.1077 13.1382 12.7968 13.437C12.4045 13.8141 12.0782 13.54 11.8201 12.5987C11.5587 11.6418 11.4291 10.1116 11.4351 8.01022C11.4416 5.78288 11.5825 3.95104 11.8548 2.53879C12.1238 1.14263 12.4698 0.321799 12.887 0.0691413C13.2442 -0.147194 13.527 0.14508 13.7383 0.932695C13.8634 1.39265 13.9539 2.10546 14.0119 3.07252L13.4494 4.07384C13.4185 3.43904 13.3504 2.96459 13.2444 2.6535C13.1372 2.3409 13.0053 2.23701 12.8483 2.34146C12.6285 2.48807 12.4466 2.9565 12.3049 3.75239C12.1616 4.54989 12.0873 5.73658 12.0819 7.30551C12.0762 8.96175 12.1416 10.082 12.2763 10.6608C12.4107 11.2369 12.5853 11.4242 12.7997 11.2307C12.9565 11.0892 13.0914 10.7527 13.2043 10.2194C13.3167 9.68867 13.3991 8.94312 13.451 7.97606ZM8.12927 3.21725L8.82325 2.79248L8.81752 12.3097L10.2393 1.92554L10.9071 1.51696L10.8744 15.061L10.256 15.6522L10.2728 6.68134L8.85949 16.9867L8.12927 17.6843V3.21725ZM7.2979 17.5545L6.54191 17.0288L6.23909 13.6034L4.90193 12.7334L4.6361 15.7037L3.94644 15.2242L5.18075 2.23786L5.8897 2.59252L7.2979 17.5545ZM6.01127 11.0827L5.53513 5.64417L5.09926 10.5191L6.01127 11.0827ZM1.95699 11.5953L2.55199 11.9895C2.74414 12.1165 2.88048 12.1662 2.95887 12.1367C3.03735 12.1068 3.1066 11.9673 3.16513 11.7131C3.22357 11.4621 3.25227 11.1222 3.2519 10.6975C3.25133 10.0781 3.19939 9.59664 3.0971 9.25111C2.99444 8.90972 2.8212 8.66317 2.57692 8.51403L1.95595 8.13424L1.95699 11.5953Z" fill="#006634"/>
</svg>
