<svg width="56" height="50" viewBox="0 0 56 50" fill="none" xmlns="http://www.w3.org/2000/svg">
<path d="M55.9851 9.2951C55.9104 10.2643 55.8358 11.2187 55.7611 12.1879C55.5223 15.2716 55.0744 18.3112 54.0294 21.248C53.2083 23.5535 52.0887 25.6974 50.2077 27.3714C48.4312 28.9719 46.2516 29.6915 43.9078 29.9264C40.9221 30.2348 38.0558 29.853 35.3836 28.4433C34.7267 28.1056 34.1445 27.6357 33.4727 27.1952C33.0248 27.9881 32.5173 28.7664 32.0993 29.6034C30.1138 33.4359 28.9344 37.5328 28.4418 41.7912C28.188 43.9645 28.1133 46.1525 27.979 48.3257C27.9193 49.4123 27.5311 49.985 26.71 49.9997C25.874 50.0144 25.4113 49.4417 25.4113 48.311C25.3963 44.1848 25.1425 40.0732 24.5006 35.991C23.8587 31.8941 22.7987 27.9 21.0969 24.0821C21.0073 23.8765 20.8879 23.6709 20.8132 23.4947C19.813 23.8618 18.8874 24.2877 17.9171 24.5226C14.3491 25.4184 10.8409 25.3156 7.4969 23.5975C5.42182 22.5403 4.09317 20.7782 3.04817 18.7958C1.65981 16.1673 0.898449 13.3479 0.584948 10.4258C0.271447 7.45958 0.166946 4.464 0.00273147 1.46842C-0.0420544 0.513949 0.465519 0 1.40602 0C5.21282 0 9.01962 0.161526 12.7667 0.91042C15.3643 1.42437 17.8723 2.21732 20.1713 3.56826C23.3511 5.44784 24.9783 8.25253 25.3814 11.8208C25.68 14.4052 25.3963 16.9015 24.3513 19.295C24.008 20.0733 23.4705 20.7782 23.0675 21.527C22.9779 21.6886 22.9182 21.9676 22.9928 22.1291C24.9783 26.1966 26.1428 30.5138 26.9041 34.9484C26.919 35.0659 26.9489 35.198 26.9788 35.3155C26.9937 35.3596 27.0235 35.4036 27.0534 35.4624C27.4415 34.3023 27.8148 33.1423 28.2328 32.0116C29.1285 29.618 30.3078 27.3567 31.741 25.2275C31.8455 25.0806 31.8604 24.7869 31.7858 24.6254C30.2332 20.9837 30.0541 17.298 31.4126 13.5682C32.2187 11.3656 33.7862 9.77968 35.7717 8.56089C38.4439 6.94563 41.3998 6.15268 44.4452 5.65342C47.7743 5.11011 51.1482 4.97795 54.5221 4.94858C55.2834 4.94858 55.7611 5.27163 56 5.96179C55.9851 7.0631 55.9851 8.1791 55.9851 9.2951ZM34.9656 25.1394C35.5776 25.5505 36.1151 26.0057 36.7122 26.2994C39.1456 27.5035 41.7282 27.7091 44.3855 27.2833C46.7741 26.9015 48.7298 25.8148 49.9838 23.7444C50.6108 22.7018 51.1781 21.6005 51.5961 20.4698C52.8799 16.9749 53.2083 13.3186 53.3576 9.63284C53.3875 8.928 53.3576 8.20847 53.3576 7.47426C53.283 7.45958 53.1934 7.44489 53.1038 7.44489C50.4913 7.63579 47.8639 7.75326 45.2663 8.03226C42.7882 8.31126 40.3697 8.94268 38.1155 10.0734C36.6824 10.7929 35.3537 11.6739 34.458 13.0543C33.4876 14.552 33.1293 16.226 33.0547 17.9588C32.9801 19.53 33.1592 21.0571 33.6817 22.5549C33.7414 22.5256 33.7862 22.5256 33.8011 22.5109C33.8609 22.4522 33.9355 22.3787 33.9952 22.32C36.2046 19.8384 38.7873 17.8266 41.7133 16.226C42.4149 15.8443 43.1166 15.4625 43.863 15.1835C44.699 14.8604 45.4455 15.3009 45.6246 16.1086C45.744 16.6959 45.4902 17.0924 44.8185 17.4742C43.3107 18.3259 41.7581 19.1335 40.31 20.1027C38.2947 21.4389 36.5779 23.1129 34.9656 25.1394ZM2.5406 2.511C2.5406 2.77531 2.52567 2.98089 2.5406 3.20116C2.67496 5.19821 2.73467 7.20994 2.9586 9.207C3.28703 12.0998 3.86924 14.9338 5.22775 17.5623C6.33247 19.7062 7.85519 21.3802 10.3035 22.0557C12.2293 22.5843 14.1849 22.6724 16.1406 22.3347C17.3349 22.1291 18.4694 21.806 19.6189 21.1453C18.9024 20.1467 18.2306 19.1482 17.4991 18.1937C15.8121 16.0058 13.6923 14.3024 11.3933 12.7899C11.0499 12.555 10.7066 12.3054 10.4378 11.997C10.0198 11.5124 10.0796 10.8223 10.5125 10.3817C10.9305 9.95589 11.5873 9.89715 12.1098 10.2349C12.498 10.4992 12.8712 10.7782 13.2743 11.0425C16.469 13.1424 19.1412 15.7415 21.1865 18.9573C21.2611 19.0748 21.3656 19.1923 21.4701 19.3097C21.5298 19.251 21.5597 19.2216 21.5746 19.1923C21.6343 19.1042 21.6791 19.0014 21.7239 18.9133C22.9928 16.2701 23.1869 13.5095 22.5599 10.6754C22.112 8.69305 21.0372 7.13653 19.3204 6.00584C17.8723 5.03668 16.2899 4.37589 14.6179 3.906C10.9454 2.8781 7.16847 2.5991 3.3766 2.511C3.10789 2.511 2.83917 2.511 2.5406 2.511Z" fill="#5FBC72"/>
</svg>
