<svg width="52" height="62" viewBox="0 0 52 62" fill="none" xmlns="http://www.w3.org/2000/svg">
<path fill-rule="evenodd" clip-rule="evenodd" d="M3.90142 34.69V11.3125C3.90142 10.8497 5.52267 10.5861 6.45091 10.2839C7.4027 9.97394 8.4106 9.67459 9.29392 9.42945L20.495 6.07925C21.413 5.79544 22.3599 5.52528 23.2385 5.24452C26.6555 4.15265 25.5527 4.19736 28.8441 5.21489L42.8783 9.42945C43.7324 9.66647 44.7274 9.96494 45.6319 10.254C46.0526 10.3884 46.5213 10.515 47.0037 10.6714C47.4676 10.8217 48.2708 10.8607 48.2708 11.3125V34.69C48.2708 38.0876 47.45 40.7174 45.5462 43.2962C45.1434 43.8418 44.7765 44.3203 44.3528 44.8462C44.1183 45.1373 43.8975 45.2886 43.6544 45.579C41.0807 48.6528 36.6348 51.8304 33.4581 53.87C32.5911 54.4267 26.6851 57.894 26.0861 57.894C25.2303 57.894 18.641 53.8017 17.1161 52.844C15.1174 51.5889 12.5387 49.4017 10.7351 47.8941L7.29139 44.1815C4.9679 41.2054 3.90142 38.6838 3.90142 34.69ZM0.323242 9.52343V36.5983C0.323242 38.2253 1.0036 40.5445 1.55575 41.6873C1.75069 42.0908 1.82024 42.372 2.03077 42.7628C2.22182 43.1174 2.401 43.409 2.59535 43.7488C4.39306 46.8915 6.64162 48.9988 9.17949 51.3581C10.9772 53.0293 12.7071 54.1263 14.5856 55.4938C16.1693 56.6466 24.5854 61.7649 25.8476 61.7649C27.1939 61.7649 29.0539 60.5145 30.6194 59.7381C31.0068 59.546 31.2249 59.3872 31.6123 59.1805L38.4435 54.9193C42.3787 52.3072 47.1075 47.8725 49.4873 43.8977C50.7007 41.871 51.849 39.0871 51.849 36.5983V9.52343C51.849 8.15257 50.1063 7.80039 49.4785 7.60017L39.5787 4.61854C38.3245 4.23082 27.049 0.697266 25.9669 0.697266C25.3084 0.697266 23.2707 1.44059 22.602 1.62619L2.78314 7.57029C2.14948 7.77643 0.323242 8.11766 0.323242 9.52343Z" fill="#5FBC71"/>
</svg>
