<svg width="51" height="57" viewBox="0 0 51 57" fill="none" xmlns="http://www.w3.org/2000/svg">
<path fill-rule="evenodd" clip-rule="evenodd" d="M20.0672 51.9976C20.0672 50.8149 20.5106 49.5814 20.5106 48.45L21.393 48.8986C23.3934 49.7959 23.9534 49.2994 24.3017 50.2024C24.6287 51.0496 25.8928 53.3004 26.0542 53.9935C25.3368 54.3378 24.3023 54.4514 23.9142 54.847L23.6558 55.2536C23.6443 55.2755 23.6304 55.3066 23.6195 55.3279C23.6085 55.3493 23.5918 55.3822 23.582 55.4012C23.5722 55.4202 23.5515 55.4583 23.5434 55.4733C23.5353 55.4889 23.5197 55.5235 23.5041 55.5454C23.4753 54.2329 22.0631 54.2473 20.6219 54.215C20.5654 53.5356 20.0672 52.6251 20.0672 51.9976ZM44.3481 26.2762C44.3481 30.7172 43.2818 34.4541 40.4423 37.5595L37.3593 39.9094C36.9712 40.1349 36.5439 40.324 36.108 40.5426C35.2608 40.9664 34.4339 41.2507 33.4414 41.535C32.4836 41.809 31.8757 42.4231 31.1543 42.9064C31.4288 41.7294 32.6935 40.0201 31.9801 39.0888C31.5949 38.5859 30.7806 38.4631 30.295 38.9423C29.9894 39.2439 29.7236 40.324 29.5246 40.8332C29.0172 42.1313 28.4203 43.1492 27.6966 44.216C27.3062 44.7921 26.9781 45.0931 26.5617 45.6312C26.1177 46.2061 25.7076 46.4621 25.1961 46.9269C24.4597 47.5965 24.4706 47.4973 23.4153 47.2084C16.9404 45.4391 18.1751 39.2705 16.3015 38.6794C15.6833 38.4844 14.8563 38.944 14.8563 39.6914C14.8563 40.3275 15.3696 41.3672 15.5218 42.0195C13.3379 41.8378 11.1068 39.6476 10.1247 37.549C9.83983 36.9407 9.48803 35.6916 9.42402 34.924C10.2273 34.9419 10.3127 35.1386 11.8761 34.826C12.3011 34.7412 12.6817 34.6709 12.9764 34.4852C14.1799 33.728 13.0928 32.374 12.5283 32.374C11.7642 32.374 11.4741 32.7067 10.2002 32.7067C7.72225 32.7067 6.20103 31.8377 5.65435 29.4912C6.28696 29.4912 6.42128 29.6019 7.09541 29.6019C9.01632 29.6019 9.97823 29.8804 9.97823 28.1608C9.97823 26.9019 7.09198 27.3483 5.53727 27.1695C4.74376 27.0778 4.38334 26.5444 4.05925 25.8754C3.6798 25.0923 3.76973 24.4706 3.76973 23.3934C4.79333 23.6322 4.98367 24.1696 7.20675 24.1696C7.80303 24.1696 8.64899 22.7792 7.50083 22.1011C7.09947 21.8641 5.11455 21.8295 3.91103 20.8128C3.24151 20.2477 2.29693 18.3319 2.24273 17.603C2.05646 15.0962 6.98012 18.3475 8.57405 19.1433C9.30296 19.5072 9.84792 19.6058 10.2032 20.2863C11.8473 23.4373 14.8523 27.2179 17.6278 29.381L20.0222 31.0886C20.3307 31.291 20.5977 31.4547 20.9189 31.6335C24.2152 33.4685 29.3389 34.6755 33.4979 33.3872C34.6997 33.0147 35.5001 32.5545 36.4147 31.8688C39.8471 29.2951 40.497 23.2164 37.2792 20.3728C35.3773 18.6918 33.5175 18.5142 32.5954 18.0718C32.7621 16.0748 34.7234 11.8236 35.9373 10.2158C36.4171 9.58033 36.661 9.2943 37.2244 8.73089C38.0704 7.8849 37.714 8.15882 38.737 7.472C40.9538 5.98302 46.1219 5.05863 46.1219 8.09367C46.1219 9.14322 45.3832 9.68757 44.5412 9.83924C43.8227 9.96842 41.8055 9.91596 41.4018 10.1362C40.1222 10.8335 41.4336 12.6004 42.1994 14.8984C43.2807 18.1411 44.3481 22.0279 44.3481 26.2762ZM42.7957 3.43702C42.7957 2.59738 43.5609 1.6049 45.1716 2.83494C46.5798 3.90987 47.1196 3.63189 47.1196 4.9888C46.4817 4.65145 46.2811 4.32683 45.2264 3.99928C43.776 3.54947 42.7957 4.08174 42.7957 3.43702ZM40.5783 4.21322C39.7531 4.28185 38.3858 5.005 37.7573 5.3833C35.3519 6.83075 33.4489 9.49672 32.2247 12.0462C31.5598 13.4314 31.0292 14.9468 30.6226 16.4312C30.5188 16.8101 30.351 17.8723 30.1624 18.0776C29.5621 18.7293 26.0225 18.3902 26.2163 20.1479C26.4798 22.537 30.2789 19.8774 31.9081 20.3059C32.4397 20.446 32.923 20.5498 33.4523 20.7626C36.4932 21.9863 37.0307 23.1327 37.0307 26.0542C37.0307 28.6302 35.1478 30.3764 33.0245 31.1399C30.1901 32.1589 26.2232 31.4594 23.6604 30.4438C20.3215 29.1204 16.9964 26.1147 14.8246 23.2037C14.4965 22.7643 13.6523 21.7579 13.526 21.2868C13.9031 21.4679 18.626 23.1414 18.626 20.9541C18.626 20.619 18.3718 20.2586 18.1613 20.0885C17.6538 19.6785 16.0766 19.7223 14.7312 19.306C11.7446 18.381 9.76832 17.1354 7.05853 15.7802C5.30659 14.9042 3.16768 13.5646 1.30445 14.8304C0.288344 15.5201 0 16.6417 0 17.8498C0 19.5862 1.77789 21.2828 1.65332 22.4846C1.43592 24.5791 1.06627 25.8085 2.72248 27.9883C3.37412 28.8459 3.28593 28.3666 3.42722 29.723C3.51257 30.539 3.69132 31.1347 3.98773 31.712C4.65437 33.0112 5.36599 33.4685 6.33768 34.2407C7.44721 35.1224 7.2477 36.4136 7.75921 37.808C8.59654 40.0876 10.1951 41.9583 12.2406 43.1942C13.6978 44.0747 14.5893 44.1439 16.0212 44.4029C16.7715 44.5384 16.5027 44.6179 17.2045 45.6588L18.4046 47.0088C18.4046 47.4667 17.9017 50.9827 17.7899 51.1615C17.6399 51.4019 16.3638 51.7428 16.0276 51.8379C13.786 52.4728 14.9503 54.215 15.7432 54.215C16.2519 54.215 17.7005 53.7283 18.0718 53.5501C19.0124 55.5102 17.9208 56.4657 20.9552 56.5424C21.5117 56.5563 21.5192 56.6492 22.0653 56.6641C23.3894 56.6993 23.0942 56.1491 23.6155 55.7674C23.7666 57.5845 26.0455 56.3827 26.9642 56.1232C28.7323 55.6232 28.1516 55.9698 29.6014 55.9894C31.3689 56.0142 34.1479 56.8855 34.1479 55.1019C34.1479 54.6007 33.8307 54.2034 33.427 54.0489C33.0153 53.8915 29.1043 53.6608 28.4936 53.6608C28.1233 52.9619 27.6729 52.1147 27.3529 51.3645C27.0668 50.695 26.4043 49.5555 26.2762 49.0042C27.6084 48.2995 33.1508 44.0753 34.1029 43.7483C36.3219 42.9859 38.53 42.1331 40.3829 40.6049C42.6619 38.7249 44.0938 37.0203 45.2517 34.1651C46.5908 30.8654 46.6709 28.1487 46.5688 24.3876C46.4783 21.0585 45.2056 16.7357 44.1681 13.5946C43.9911 13.0582 43.8014 12.7048 43.6826 12.1956C46.0412 12.1956 48.3392 10.9338 48.3392 8.5371C49.3859 8.62418 51 9.10862 51 7.42819C51 6.55741 50.1056 6.31978 49.2262 6.31978C49.2423 5.60412 49.8495 4.44443 48.9188 2.96757C48.5687 2.41165 48.1951 2.06854 47.612 1.72484C45.5798 0.525937 45.9016 0 43.5719 0C42.5517 0 41.7202 0.728372 41.2139 1.30101C40.3183 2.31365 40.5783 3.45778 40.5783 4.21322Z" fill="#5FBC72"/>
<path fill-rule="evenodd" clip-rule="evenodd" d="M21.2852 20.8439C21.2852 22.4839 23.7724 22.2071 23.5729 20.7735C23.3537 19.2003 21.2852 19.5804 21.2852 20.8439Z" fill="#5FBC72"/>
</svg>
