<svg width="275" height="285" viewBox="0 0 275 285" fill="none" xmlns="http://www.w3.org/2000/svg">
<path d="M126.268 63.1182C126.268 97.9774 98.0016 126.236 63.1338 126.236C28.266 126.236 0 97.9774 0 63.1182C0 28.259 28.266 0 63.1338 0C98.0016 0 126.268 28.259 126.268 63.1182Z" fill="#006634"/>
<path d="M275 63.1182C275 97.9774 246.734 126.236 211.866 126.236C176.998 126.236 148.732 97.9774 148.732 63.1182C148.732 28.259 176.998 0 211.866 0C246.734 0 275 28.259 275 63.1182Z" fill="#006634"/>
<path d="M126.268 221.882C126.268 256.741 98.0016 285 63.1338 285C28.266 285 0 256.741 0 221.882C0 187.023 28.266 158.764 63.1338 158.764C98.0016 158.764 126.268 187.023 126.268 221.882Z" fill="#006634"/>
<path d="M275 221.882C275 256.741 246.734 285 211.866 285C176.998 285 148.732 256.741 148.732 221.882C148.732 187.023 176.998 158.764 211.866 158.764C246.734 158.764 275 187.023 275 221.882Z" fill="#006634"/>
</svg>
